<svg version="1.1" xmlns="http://www.w3.org/2000/svg" xmlns:xlink="http://www.w3.org/1999/xlink" x="0px" y="0px" width="48" height="48" viewBox="0 0 48 48" enable-background="new 0 0 48 48" xml:space="preserve">
<g>
	<path fill="#1565C0" d="M40.633,29.026c-2.4-0.806-4.802-1.07-7.041-0.961c-2.069,0.041-4.219,0.421-6.43,1.122l-0.777,0.277
		l5.844,1.827l1.577-0.565c0,0,0.727-0.258,1.491-0.369c0.979-0.143,1.975,0.104,1.975,0.104c0.557,0.132,0.854,0.265,0.961,0.533
		c0.104,0.32-0.268,0.585-1.068,0.854l-1.426,0.541l5.566,1.741c1.916-0.768,2.789-1.588,2.688-2.601
		C43.938,30.517,42.763,29.72,40.633,29.026z"/>
	<polygon fill="#1565C0" points="22.001,28.094 22.001,25 17.12,26.566 	"/>
</g>
<g>
	<path fill="#FF9800" d="M18.717,32.194l-1.364,0.485l-1.249,0.451l-1.335,0.53c0,0-1.203,0.362-2.236,0.429
		s-2.133-0.269-2.133-0.269c-0.447-0.165-0.536-0.531-0.267-0.797c0.267-0.161,0.639-0.375,1.066-0.537l1.438-0.529l2.561-0.864
		l-5.774-1.806l-1.051,0.377l-1.333,0.534c-2.026,0.853-3.093,1.759-3.039,2.559c0.105,1.17,1.44,2.023,3.84,2.667
		c3.115,0.84,6.28,1.014,9.513,0.527c0,0,2.543-0.483,7.101-1.963L18.717,32.194z"/>
	<polygon fill="#FF9800" points="28.316,35.196 25.605,36.222 25.605,40 30.929,37.929 33.797,36.91 	"/>
</g>
<g>
	<polygon fill="#00BCD4" points="22.001,28.094 17.121,26.566 16.106,26.893 9.425,29.288 15.199,31.094 22.001,28.8 	"/>
	<path fill="#00BCD4" d="M32.229,31.292l-5.844-1.827l-7.668,2.729l5.739,1.795c0.837-0.272,1.735-0.574,2.706-0.917
		c1.051-0.368,4.402-1.542,4.402-1.542L32.229,31.292z"/>
	<path fill="#00BCD4" d="M35.738,32.39l-0.547,0.207l-6.875,2.6l5.48,1.714l6.142-2.181l1.065-0.477
		c0.107-0.04,0.199-0.081,0.301-0.122L35.738,32.39z"/>
</g>
<path fill="#F44336" d="M34.203,14.323c-1.123-1.515-3.094-2.751-6.017-3.764C24.539,9.378,21.472,8.52,19.001,8v29.978L25.604,40
	V15.057c0-0.673,0.057-1.126,0.336-1.408c0.281-0.39,0.564-0.444,0.957-0.278c0.953,0.278,1.404,1.127,1.404,2.528v10.228
	c2.137,1.014,4.049,1.123,5.451,0.06c1.462-1.014,2.249-2.813,2.249-5.509C36.001,17.868,35.439,15.733,34.203,14.323z"/>
</svg>