<svg version="1.1" xmlns="http://www.w3.org/2000/svg" xmlns:xlink="http://www.w3.org/1999/xlink" x="0px" y="0px" width="48" height="48" viewBox="0 0 48 48" enable-background="new 0 0 48 48" xml:space="preserve">
<circle fill="#7CB342" cx="24.001" cy="24" r="19"/>
<path fill="#CFD8DC" d="M13.464,8.226c-0.019,0.011-0.035,0.031-0.053,0.043c0.108-0.113,0.268-0.232,0.367-0.301
	C16.75,6.035,20.192,5,24.002,5c3.566,0,6.907,0.979,9.759,2.699c0.206,0.122,0.773,0.505,1.061,0.861l0,0
	c-2.75-3.035-10.837,3.479-10.837,3.479c-2.799-2.154-5.368-3.629-7.282-4.15C15.098,7.449,13.994,7.817,13.464,8.226z
	 M37.939,11.091c-0.082-0.088-0.173-0.181-0.26-0.271c-0.693-0.769-1.548-0.953-2.32-0.906c-0.704,0.221-3.941,1.394-7.939,5.17
	c0,0,4.5,4.372,7.252,8.839c2.75,4.467,4.396,7.982,3.387,12.854c3.07-3.365,4.942-7.849,4.942-12.776
	C43.001,19.02,41.085,14.487,37.939,11.091z M31.074,25.827c-1.217-1.37-3.031-3.323-5.428-5.704
	c-0.529-0.529-1.083-1.068-1.663-1.629c0,0-0.875,0.869-2.019,2.021v-0.002c-1.456,1.478-3.348,3.402-4.4,4.523
	c-1.871,1.996-7.224,8.253-7.528,11.77c0,0-1.191-2.785,1.424-9.21c1.708-4.198,6.876-10.509,9.031-12.57
	c0,0-1.969-2.163-4.446-3.656l-0.01-0.01c0,0-0.031-0.02-0.073-0.052c-1.189-0.708-2.487-1.257-3.741-1.329
	c-1.271,0.095-2.082,1.028-2.082,1.028c-3.19,3.401-5.14,7.959-5.14,12.992c0,10.495,8.504,19,19.001,19
	c5.569,0,10.58-2.399,14.059-6.224c0-0.004-0.402-2.503-2.96-6.097C34.503,29.834,32.309,27.205,31.074,25.827z"/>
</svg>